<?xml version="1.0"?><svg width="640" height="480" xmlns="http://www.w3.org/2000/svg">
 <title>green bus stop</title>
 <metadata id="metadata18081">image/svg+xmlPublic Domainclker.comMohamed Ibrahimmap symbolsmap symbolsimage/svg+xmlMap SymbolsMohamed IbrahimPublic Domain Licenseclker.commap symbols</metadata>
 <g>
  <title>Layer 1</title>
  <path fill="#ffffff" fill-rule="nonzero" id="path6760" d="m142.150436,2.22501c-25.865997,0 -46.903,21.03698 -46.903,46.903992l0,359.63998c0,25.817993 21.037003,46.808044 46.903,46.808044l359.64003,0c25.81897,0 46.807983,-20.990051 46.807983,-46.808044l0,-359.63998c0,-25.867012 -20.989014,-46.903992 -46.807983,-46.903992l-359.64003,0z"/>
  <path fill="#0000ff" fill-rule="nonzero" id="path6762" d="m502.737244,480.138977c32.295471,0 58.447754,-25.623627 58.447754,-57.324432l0,-365.729485c0,-31.701845 -26.152283,-57.422084 -58.447754,-57.422084l-372.578796,0c-32.29451,0 -58.497482,25.720254 -58.497482,57.422084l0,365.729485c0,31.700806 26.202972,57.324432 58.497482,57.324432l372.578796,0z"/>
  <path fill="#ffffff" fill-rule="nonzero" id="path6764" d="m440.088989,60.483002c-3.729004,-18.550991 -15.586975,-25.961002 -33.419983,-33.372011c-17.833984,-7.458981 -59.574005,-16.303981 -90.699005,-16.303981c-31.173981,0 -72.912994,8.845 -90.746979,16.303981c-17.834015,7.411009 -29.69101,14.82102 -33.421021,33.372011l-13.386993,102.890991l0,141.761993l23.093018,0l0,22.233032c0,27.060974 39.68399,27.060974 39.68399,0l0,-22.233032l149.602997,0l0,22.233032c0,27.060974 39.587982,27.060974 39.587982,0l0,-22.233032l23.046021,0l0,-141.761993l-13.340027,-102.890991zm-186.369965,-26.966003l124.406006,0c12.23999,0 12.23999,23.188992 0,23.188992l-124.406006,0c-12.192017,0 -12.192017,-23.188992 0,-23.188992m-32.417023,229.066986c-11.521973,0 -20.893982,-9.323975 -20.893982,-20.941986c0,-11.522003 9.372009,-20.894012 20.893982,-20.894012c11.571014,0 20.942017,9.372009 20.942017,20.894012c0,11.618011 -9.371002,20.941986 -20.942017,20.941986m189.287018,0c-11.570007,0 -20.989014,-9.323975 -20.989014,-20.941986c0,-11.522003 9.419006,-20.894012 20.989014,-20.894012c11.475006,0 20.845978,9.372009 20.845978,20.894012c0,11.618011 -9.370972,20.941986 -20.845978,20.941986m8.223999,-88.355988l-205.446991,0c-5.97702,0 -10.949005,-4.972992 -10.949005,-10.949005c0,-1.003998 0.190979,-1.960999 0.381989,-2.868988l10.949005,-81.136993c0.90799,-5.068024 5.402985,-8.988007 10.709991,-8.988007l183.214996,0c5.307007,0 9.801025,3.919983 10.757019,8.988007l10.90097,81.136993c0.192017,0.90799 0.382996,1.86499 0.382996,2.868988c0,5.976013 -4.924988,10.949005 -10.90097,10.949005"/>
  <text xml:space="preserve" text-anchor="middle" font-family="serif" font-size="24" id="svg_1" y="448" x="342" stroke-width="0" fill="#000000"/>
  <text transform="matrix(3.44738,0,0,3.85436,-352.762,-1082.6) " xml:space="preserve" text-anchor="middle" font-family="Arial Black" font-size="24" id="svg_2" y="391.565" x="195.448" stroke-width="0" fill="#ffffff">BUS STOP</text>
 </g>
</svg>